<?xml version="1.0" encoding="UTF-8" standalone="no"?>
<!DOCTYPE svg PUBLIC "-//W3C//DTD SVG 1.1//EN" "http://www.w3.org/Graphics/SVG/1.1/DTD/svg11.dtd">
<svg width="100%" height="100%" viewBox="0 0 500 500" version="1.1" xmlns="http://www.w3.org/2000/svg" xmlns:xlink="http://www.w3.org/1999/xlink" xml:space="preserve" xmlns:serif="http://www.serif.com/" style="fill-rule:evenodd;clip-rule:evenodd;stroke-linejoin:round;stroke-miterlimit:2;">
    <path d="M250,35.546c-59.177,0 -112.788,24.024 -151.603,62.845c-38.813,38.818 -62.833,92.431 -62.833,151.609c0,59.178 24.02,112.791 62.833,151.609c38.815,38.821 92.426,62.845 151.603,62.845c59.177,-0 112.788,-24.024 151.603,-62.845c38.813,-38.818 62.833,-92.431 62.833,-151.609c-0,-59.178 -24.02,-112.791 -62.833,-151.609c-38.815,-38.821 -92.426,-62.845 -151.603,-62.845Zm-0,8.708c56.774,-0 108.207,23.05 145.446,60.294c37.237,37.242 60.282,88.676 60.282,145.452c0,56.776 -23.045,108.21 -60.282,145.452c-37.239,37.244 -88.672,60.294 -145.446,60.294c-56.774,0 -108.207,-23.05 -145.446,-60.294c-37.237,-37.242 -60.282,-88.676 -60.282,-145.452c-0,-56.776 23.045,-108.21 60.282,-145.452c37.239,-37.244 88.672,-60.294 145.446,-60.294Z" style="fill:#480ca8;"/>
    <g>
        <g>
            <path d="M249.912,218.178c-31.261,-28.358 -70.875,-39.809 -118.337,-35.373l-0.279,135.402c48.349,-5.119 86.157,9.783 118.337,35.372l0.279,-135.401Z" style="fill:#fff;"/>
            <path d="M252.612,218.183c0.001,-0.763 -0.321,-1.492 -0.886,-2.005c-16.501,-14.968 -35.284,-25.316 -56.278,-31.189c-19.483,-5.45 -40.876,-7.045 -64.124,-4.872c-1.386,0.129 -2.446,1.291 -2.449,2.683l-0.279,135.401c-0.002,0.767 0.323,1.498 0.892,2.011c0.569,0.513 1.33,0.76 2.092,0.68c22.786,-2.413 43.19,-0.31 61.744,5.313c20.167,6.112 38.145,16.38 54.628,29.487c0.811,0.645 1.918,0.769 2.851,0.32c0.934,-0.449 1.528,-1.392 1.53,-2.427l0.279,-135.402Zm-5.403,1.196c-15.648,-13.961 -33.408,-23.648 -53.216,-29.19c-18.203,-5.092 -38.129,-6.687 -59.723,-4.91l-0.268,129.951c22.374,-2.011 42.508,0.236 60.889,5.807c19.057,5.776 36.231,15.128 52.053,27.047l0.265,-128.705Z" style="fill:#e0b010;"/>
            <path d="M250.088,218.577c31.261,-28.358 70.875,-39.808 118.337,-35.372l0.279,135.401c-48.349,-5.118 -86.157,9.784 -118.337,35.373l-0.279,-135.402Z" style="fill:#fff;"/>
            <path d="M248.274,216.577c-0.565,0.513 -0.887,1.242 -0.886,2.006l0.279,135.401c0.002,1.036 0.596,1.979 1.53,2.428c0.933,0.448 2.04,0.324 2.851,-0.32c16.483,-13.107 34.461,-23.375 54.628,-29.487c18.554,-5.624 38.958,-7.726 61.744,-5.314c0.762,0.081 1.523,-0.166 2.092,-0.68c0.569,-0.513 0.894,-1.244 0.892,-2.01l-0.279,-135.402c-0.003,-1.392 -1.063,-2.553 -2.449,-2.683c-23.248,-2.172 -44.641,-0.578 -64.124,4.873c-20.994,5.873 -39.777,16.22 -56.278,31.188Zm117.456,-30.898c-21.594,-1.778 -41.52,-0.183 -59.723,4.91c-19.808,5.542 -37.568,15.229 -53.216,29.189l0.265,128.705c15.822,-11.919 32.996,-21.27 52.053,-27.046c18.381,-5.571 38.515,-7.819 60.889,-5.808l-0.268,-129.95Z" style="fill:#e0b010;"/>
        </g>
        <g>
            <path d="M248.679,207.66c-28.038,-30.258 -63.568,-42.476 -106.138,-37.742l-0.25,144.473c43.366,-5.461 77.276,10.439 106.138,37.743l0.25,-144.474Z" style="fill:#fff;"/>
            <path d="M251.379,207.665c0.002,-0.683 -0.256,-1.34 -0.719,-1.84c-14.509,-15.658 -30.987,-26.58 -49.36,-32.934c-17.896,-6.189 -37.599,-8.043 -59.057,-5.657c-1.365,0.152 -2.399,1.305 -2.402,2.679l-0.25,144.473c-0.001,0.776 0.331,1.515 0.913,2.029c0.581,0.513 1.355,0.752 2.125,0.655c20.784,-2.618 39.348,-0.227 56.198,6.047c17.588,6.549 33.306,17.317 47.747,30.978c0.783,0.74 1.931,0.945 2.921,0.519c0.99,-0.425 1.632,-1.398 1.634,-2.476l0.25,-144.473Zm-5.401,1.058c-13.692,-14.554 -29.186,-24.76 -46.443,-30.728c-16.511,-5.711 -34.628,-7.542 -54.298,-5.642l-0.24,139.009c20.505,-2.141 38.923,0.442 55.714,6.694c16.424,6.116 31.294,15.75 45.029,27.949l0.238,-137.282Z" style="fill:#e0b010;"/>
            <path d="M248.838,208.086c28.038,-30.258 63.568,-42.475 106.138,-37.742l0.25,144.473c-43.365,-5.461 -77.275,10.439 -106.138,37.743l-0.25,-144.474Z" style="fill:#fff;"/>
            <path d="M246.857,206.251c-0.463,0.5 -0.72,1.158 -0.719,1.84l0.25,144.473c0.002,1.078 0.644,2.051 1.634,2.477c0.99,0.425 2.139,0.221 2.921,-0.52c14.441,-13.661 30.159,-24.429 47.748,-30.978c16.849,-6.273 35.413,-8.664 56.198,-6.047c0.769,0.097 1.543,-0.142 2.125,-0.655c0.581,-0.514 0.913,-1.253 0.912,-2.028l-0.25,-144.474c-0.003,-1.374 -1.036,-2.527 -2.402,-2.679c-21.458,-2.385 -41.161,-0.532 -59.057,5.658c-18.373,6.353 -34.851,17.276 -49.36,32.933Zm105.423,-33.472c-19.67,-1.9 -37.787,-0.068 -54.298,5.642c-17.257,5.968 -32.751,16.174 -46.442,30.728l0.237,137.282c13.735,-12.199 28.605,-21.833 45.029,-27.949c16.791,-6.251 35.209,-8.835 55.715,-6.694l-0.241,-139.009Z" style="fill:#e0b010;"/>
        </g>
        <g>
            <path d="M249.222,188.088c-24.161,-32.864 -54.779,-46.134 -91.464,-40.993l-0.215,156.915c37.37,-5.931 66.592,11.338 91.464,40.993l0.215,-156.915Z" style="fill:#fff;"/>
            <path d="M251.922,188.091c0.001,-0.576 -0.183,-1.138 -0.524,-1.603c-12.033,-16.366 -25.647,-27.969 -40.756,-34.998c-16.065,-7.473 -33.834,-9.791 -53.258,-7.069c-1.332,0.187 -2.324,1.325 -2.326,2.67l-0.215,156.916c-0.001,0.79 0.344,1.542 0.945,2.055c0.601,0.514 1.397,0.739 2.178,0.615c18.426,-2.925 34.807,-0.032 49.627,7.31c14.44,7.155 27.396,18.504 39.345,32.751c0.729,0.869 1.924,1.19 2.99,0.803c1.067,-0.387 1.777,-1.4 1.779,-2.534l0.215,-156.916Zm-5.401,0.885c-11.301,-15.177 -24.021,-26.014 -38.157,-32.59c-14.508,-6.748 -30.494,-8.994 -47.909,-6.918l-0.208,151.43c18.363,-2.326 34.797,0.845 49.744,8.251c13.169,6.524 25.184,16.358 36.326,28.656l0.204,-148.829Z" style="fill:#e0b010;"/>
            <path d="M249.359,188.551c24.162,-32.864 54.779,-46.134 91.464,-40.993l0.215,156.915c-37.37,-5.932 -66.591,11.338 -91.464,40.993l-0.215,-156.915Z" style="fill:#fff;"/>
            <path d="M247.184,186.951c-0.342,0.465 -0.526,1.027 -0.525,1.603l0.215,156.916c0.002,1.134 0.713,2.147 1.779,2.534c1.066,0.387 2.261,0.066 2.99,-0.803c11.949,-14.247 24.905,-25.596 39.345,-32.751c14.82,-7.342 31.201,-10.235 49.627,-7.31c0.781,0.124 1.577,-0.101 2.178,-0.615c0.601,-0.513 0.946,-1.265 0.945,-2.055l-0.215,-156.916c-0.002,-1.345 -0.994,-2.483 -2.325,-2.67c-19.425,-2.722 -37.193,-0.404 -53.258,7.069c-15.109,7.029 -28.724,18.632 -40.756,34.998Zm90.942,-37.02c-17.414,-2.076 -33.401,0.17 -47.909,6.918c-14.136,6.576 -26.855,17.413 -38.157,32.59l0.205,148.829c11.141,-12.298 23.156,-22.132 36.326,-28.656c14.946,-7.406 31.381,-10.577 49.743,-8.251l-0.208,-151.43Z" style="fill:#e0b010;"/>
        </g>
    </g>
</svg>
