<?xml version="1.0" encoding="UTF-8" standalone="no"?>
<!DOCTYPE svg PUBLIC "-//W3C//DTD SVG 1.1//EN" "http://www.w3.org/Graphics/SVG/1.1/DTD/svg11.dtd">
<svg width="100%" height="100%" viewBox="0 0 500 500" version="1.1" xmlns="http://www.w3.org/2000/svg" xmlns:xlink="http://www.w3.org/1999/xlink" xml:space="preserve" xmlns:serif="http://www.serif.com/" style="fill-rule:evenodd;clip-rule:evenodd;stroke-linejoin:round;stroke-miterlimit:2;">
    <path d="M250,35.546c-59.177,0 -112.788,24.024 -151.603,62.845c-38.813,38.818 -62.833,92.431 -62.833,151.609c0,59.178 24.02,112.791 62.833,151.609c38.815,38.821 92.426,62.845 151.603,62.845c59.177,-0 112.788,-24.024 151.603,-62.845c38.813,-38.818 62.833,-92.431 62.833,-151.609c-0,-59.178 -24.02,-112.791 -62.833,-151.609c-38.815,-38.821 -92.426,-62.845 -151.603,-62.845Zm-0,8.708c56.774,-0 108.207,23.05 145.446,60.294c37.237,37.242 60.282,88.676 60.282,145.452c0,56.776 -23.045,108.21 -60.282,145.452c-37.239,37.244 -88.672,60.294 -145.446,60.294c-56.774,0 -108.207,-23.05 -145.446,-60.294c-37.237,-37.242 -60.282,-88.676 -60.282,-145.452c-0,-56.776 23.045,-108.21 60.282,-145.452c37.239,-37.244 88.672,-60.294 145.446,-60.294Z" style="fill:#480ca8;"/>
    <g>
        <path d="M181.753,149.391c3.648,-8.458 10.879,-15.847 20.34,-20.961c8.6,-4.649 19.039,-7.424 30.198,-7.424c11.16,0 21.599,2.775 30.199,7.424c9.461,5.114 16.692,12.503 20.34,20.961c9.778,-1.56 20.12,-0.483 29.532,2.886c10.358,3.709 19.579,10.191 25.731,18.93c6.117,8.69 8.376,18.408 7.279,27.592c-1.019,8.54 -4.943,16.63 -11.419,23.017c6.476,6.388 10.4,14.478 11.419,23.017c1.097,9.185 -1.162,18.903 -7.279,27.593c-6.152,8.739 -15.373,15.221 -25.731,18.929c-9.412,3.37 -19.754,4.447 -29.532,2.887c-3.648,8.458 -10.879,15.847 -20.34,20.961c-8.6,4.649 -19.039,7.424 -30.199,7.424c-11.159,-0 -21.598,-2.775 -30.198,-7.424c-9.461,-5.114 -16.692,-12.503 -20.34,-20.961c-9.778,1.56 -20.12,0.483 -29.532,-2.887c-10.358,-3.708 -19.579,-10.19 -25.731,-18.929c-6.118,-8.69 -8.376,-18.408 -7.28,-27.593c1.02,-8.539 4.944,-16.629 11.42,-23.017c-6.476,-6.387 -10.4,-14.477 -11.42,-23.017c-1.096,-9.184 1.162,-18.902 7.28,-27.592c6.152,-8.739 15.373,-15.221 25.731,-18.93c9.412,-3.369 19.754,-4.446 29.532,-2.886Zm1.167,5.697c1.32,0.268 2.636,-0.478 3.084,-1.75c2.884,-8.196 9.673,-15.302 18.657,-20.158c7.867,-4.253 17.422,-6.774 27.63,-6.774c10.209,0 19.764,2.521 27.631,6.774c8.984,4.856 15.773,11.962 18.657,20.158c0.448,1.272 1.764,2.018 3.084,1.75c9.477,-1.924 19.667,-1.024 28.879,2.273c9.3,3.33 17.612,9.107 23.136,16.955c5.288,7.512 7.28,15.903 6.333,23.843c-0.976,8.176 -5.064,15.861 -11.801,21.602c-0.602,0.513 -0.949,1.265 -0.949,2.055c-0,0.791 0.347,1.542 0.949,2.055c6.737,5.742 10.825,13.427 11.801,21.602c0.947,7.941 -1.045,16.331 -6.333,23.844c-5.524,7.848 -13.836,13.625 -23.136,16.954c-9.212,3.298 -19.402,4.198 -28.879,2.274c-1.32,-0.268 -2.636,0.478 -3.084,1.75c-2.884,8.196 -9.673,15.301 -18.657,20.158c-7.867,4.253 -17.422,6.774 -27.631,6.774c-10.208,-0 -19.763,-2.521 -27.63,-6.774c-8.984,-4.857 -15.773,-11.962 -18.657,-20.158c-0.448,-1.272 -1.764,-2.018 -3.084,-1.75c-9.477,1.924 -19.667,1.024 -28.879,-2.274c-9.3,-3.329 -17.612,-9.106 -23.136,-16.954c-5.288,-7.513 -7.28,-15.903 -6.333,-23.844c0.976,-8.175 5.064,-15.86 11.801,-21.602c0.602,-0.513 0.949,-1.264 0.949,-2.055c0,-0.79 -0.347,-1.542 -0.949,-2.055c-6.737,-5.741 -10.825,-13.426 -11.801,-21.602c-0.947,-7.94 1.045,-16.331 6.333,-23.843c5.524,-7.848 13.836,-13.625 23.136,-16.955c9.212,-3.297 19.402,-4.197 28.879,-2.273Z" style="fill:#e0b010;"/>
        <path d="M312.391,305.175c-11.449,-0 -21.751,3.055 -28.953,7.855c-6.996,4.663 -11.109,10.995 -11.109,17.833c0,6.838 4.113,13.17 11.109,17.833c7.202,4.799 17.504,7.855 28.953,7.855c11.448,-0 21.75,-3.056 28.952,-7.855c6.997,-4.663 11.109,-10.995 11.109,-17.833c0,-6.838 -4.112,-13.17 -11.109,-17.833c-7.202,-4.8 -17.504,-7.855 -28.952,-7.855Zm-0,5.488c10.235,-0 19.47,2.642 25.909,6.934c5.276,3.516 8.664,8.109 8.664,13.266c0,5.157 -3.388,9.749 -8.664,13.266c-6.439,4.291 -15.674,6.934 -25.909,6.934c-10.236,-0 -19.47,-2.643 -25.909,-6.934c-5.277,-3.517 -8.665,-8.109 -8.665,-13.266c0,-5.157 3.388,-9.75 8.665,-13.266c6.439,-4.292 15.673,-6.934 25.909,-6.934Z" style="fill:#e0b010;"/>
        <path d="M358.889,351.018c-6.097,-0 -11.587,1.548 -15.463,3.963c-4.102,2.555 -6.444,6.111 -6.444,9.894c0,3.783 2.342,7.339 6.444,9.895c3.876,2.415 9.366,3.963 15.463,3.963c6.096,-0 11.586,-1.548 15.462,-3.963c4.102,-2.556 6.444,-6.112 6.444,-9.895c-0,-3.783 -2.342,-7.339 -6.444,-9.894c-3.876,-2.415 -9.366,-3.963 -15.462,-3.963Zm-0,4.878c4.139,-0 7.955,0.814 10.98,2.206c3.532,1.625 6.048,3.939 6.048,6.773c-0,2.834 -2.516,5.149 -6.048,6.773c-3.025,1.392 -6.841,2.207 -10.98,2.207c-4.14,-0 -7.956,-0.815 -10.981,-2.207c-3.532,-1.624 -6.048,-3.939 -6.048,-6.773c0,-2.834 2.516,-5.148 6.048,-6.773c3.025,-1.392 6.841,-2.206 10.981,-2.206Z" style="fill:#e0b010;"/>
    </g>
</svg>
